<svg id="Layer_1" data-name="Layer 1" xmlns="http://www.w3.org/2000/svg" viewBox="0 0 45 45"><defs><style>.cls-1{fill:#333;}</style></defs><title>skype_n2</title><path class="cls-1" d="M298.47,298.13c-3.38-.84-1.53-3.79,1.21-3.74s4,2.91,5.21,2.76,2.24-2,.34-3.64a8.55,8.55,0,0,0-6.91-1.92,5.44,5.44,0,0,0-5.17,5.07c-0.29,3.2,3.43,4.83,6.38,5.27,2.06,0.31,4.88,1.33,3.19,3.3-1.55,1.81-4.49.69-5.27,0.2s-1.64-2.27-3.09-2.17-2.17,2-.39,3.74c1.6,1.53,3.33,2.36,7.05,2.17s7.05-3.55,5.75-6.7S301.86,299,298.47,298.13Z" transform="translate(-277.5 -277.5)"/><path class="cls-1" d="M300,277.5A22.5,22.5,0,1,0,322.5,300,22.5,22.5,0,0,0,300,277.5Zm5.76,35.23a6.92,6.92,0,0,1-3.69-1.07,11.68,11.68,0,0,1-13.82-11.6,11.89,11.89,0,0,1,.14-1.86,7.11,7.11,0,0,1-1.12-3.85,7,7,0,0,1,7-7.08,6.88,6.88,0,0,1,3.81,1.15,11.35,11.35,0,0,1,1.88-.16,11.74,11.74,0,0,1,11.69,11.8,12.13,12.13,0,0,1-.11,1.6,7.12,7.12,0,0,1,1.21,4A7,7,0,0,1,305.76,312.73Z" transform="translate(-277.5 -277.5)"/></svg>